<?xml version="1.0" encoding="UTF-8"?>
<svg id="Layer_1" data-name="Layer 1" xmlns="http://www.w3.org/2000/svg" viewBox="0 0 1080 1080">
  <path d="M705.22,617.46l77.75,44.9c2.43,1.41,3.23,4.54,1.77,6.94-44.15,72.54-124.21,120.82-215.48,120.19-137.12-.96-248.47-113.35-248.21-250.47.26-137.85,112.09-249.53,250-249.53,90.85,0,170.38,48.46,214.16,120.94,1.45,2.4.66,5.53-1.77,6.93l-78.2,45.16c-2.34,1.35-5.31.6-6.74-1.69-27.04-43.43-75.67-72.04-130.87-70.8-81.9,1.83-147.53,69.86-146.56,151.78.97,82,67.76,148.18,149.99,148.18,53.78,0,100.96-28.31,127.44-70.84,1.43-2.29,4.4-3.04,6.74-1.69Z"/>
  <path d="M878.5,717.51l77.96,45.01c2.4,1.39,3.23,4.47,1.81,6.86-78.24,131.8-221.84,220.23-386.14,220.62-247.99.59-450.6-201.11-451.09-449.1-.49-248.94,201.17-450.9,450-450.9,164.75,0,308.81,88.52,387.22,220.61,1.42,2.39.59,5.48-1.82,6.86l-77.95,45.01c-2.38,1.37-5.4.56-6.81-1.8-61.1-102.24-172.88-170.69-300.65-170.69-193.3,0-350,156.7-350,350s156.7,350,350,350c127.77,0,239.54-68.46,300.65-170.69,1.41-2.36,4.43-3.17,6.81-1.8Z"/>
</svg>