<svg xmlns="http://www.w3.org/2000/svg" height="20" width="20" viewBox="0 0 20 20"><title>medal</title><g fill="#212529" class="nc-icon-wrapper"><circle cx="10" cy="12.5" r="4.5" fill="none" stroke="#212529" stroke-linecap="round" stroke-linejoin="round" stroke-width="2"></circle><path d="m9.2625,8.0743l-2.3436-5.4684c-.1572-.3677-.519-.606-.9189-.606h-3c-.3359,0-.6499.1689-.835.4497-.1851.2803-.2168.6353-.084.9443l3,7c.1282.2997.3945.5054.7043.5742.5469-1.5031,1.8609-2.6258,3.4771-2.8939Z" stroke-width="0" fill="#212529"></path><path d="m10.7375,8.0743l2.3436-5.4684c.1572-.3677.519-.606.9189-.606h3c.3359,0,.6499.1689.835.4497.1851.2803.2168.6353.084.9443l-3,7c-.1282.2997-.3945.5054-.7043.5742-.5469-1.5031-1.8609-2.6258-3.4771-2.8939Z" stroke-width="0" fill="#212529"></path><circle cx="10" cy="12.5" r="2" fill="#212529" stroke-width="0" data-color="color-2"></circle></g></svg>